<?xml version="1.0" encoding="UTF-8" standalone="no"?>
<!-- Created with Inkscape (http://www.inkscape.org/) -->

<svg
   xmlns:dc="http://purl.org/dc/elements/1.1/"
   xmlns:cc="http://creativecommons.org/ns#"
   xmlns:rdf="http://www.w3.org/1999/02/22-rdf-syntax-ns#"
   xmlns:svg="http://www.w3.org/2000/svg"
   xmlns="http://www.w3.org/2000/svg"
   xmlns:sodipodi="http://sodipodi.sourceforge.net/DTD/sodipodi-0.dtd"
   xmlns:inkscape="http://www.inkscape.org/namespaces/inkscape"
   version="1.1"
   width="599.83807"
   height="445.67139"
   id="svg2"
   inkscape:version="0.48.1 r9760"
   sodipodi:docname="Simple_Comments.svg">
  <sodipodi:namedview
     pagecolor="#ffffff"
     bordercolor="#666666"
     borderopacity="1"
     objecttolerance="10"
     gridtolerance="10"
     guidetolerance="10"
     inkscape:pageopacity="0"
     inkscape:pageshadow="2"
     inkscape:window-width="1280"
     inkscape:window-height="800"
     id="namedview12"
     showgrid="false"
     inkscape:zoom="0.45"
     inkscape:cx="-319.33972"
     inkscape:cy="62.535274"
     inkscape:window-x="0"
     inkscape:window-y="0"
     inkscape:window-maximized="0"
     inkscape:current-layer="svg2"
     fit-margin-top="0"
     fit-margin-left="0"
     fit-margin-right="0"
     fit-margin-bottom="0" />
  <defs
     id="defs4" />
  <metadata
     id="metadata7">
    <rdf:RDF>
      <cc:Work
         rdf:about="">
        <dc:format>image/svg+xml</dc:format>
        <dc:type
           rdf:resource="http://purl.org/dc/dcmitype/StillImage" />
        <dc:title />
      </cc:Work>
    </rdf:RDF>
  </metadata>
  <g
     transform="matrix(1.026337,0,0,1.026337,-8.0149632,-549.29974)"
     id="layer1"
     style="fill:#999999;fill-opacity:1;stroke:#ffffff;stroke-width:5;stroke-miterlimit:4;stroke-opacity:1;stroke-dasharray:none">
    <g
       transform="matrix(4.4857255,0,0,4.4857255,404.28589,-4163.9563)"
       id="layer1-9"
       style="fill:#999999;fill-opacity:1;stroke:#ffffff;stroke-width:1.11464691;stroke-miterlimit:4;stroke-opacity:1;stroke-dasharray:none">
      <g
         transform="matrix(1.3597791,0,0,1.3955201,-24.547469,-357.93355)"
         id="g3794"
         style="fill:#999999;fill-opacity:1;stroke:#ffffff;stroke-width:0.80916125;stroke-miterlimit:4;stroke-opacity:1;stroke-dasharray:none">
        <g
           transform="matrix(1.05077,0,0,1.05077,-51.183846,986.14634)"
           id="g3093"
           style="fill:#999999;fill-opacity:1;stroke:#ffffff;stroke-width:0.77006507;stroke-miterlimit:4;stroke-opacity:1;stroke-dasharray:none">
          <path
             d="m 15.319,45.688 c 0,13.966 17.8,25.287 39.758,25.287 3.578,0 7.042,-0.305 10.339,-0.868 8.313,7.176 26.989,6.487 26.989,6.487 0,0 -7.581,-2.248 -12.3,-7.024 C 79.279,68.732 78.616,67.599 78.083,66.305 88.218,61.724 94.836,54.199 94.836,45.688 94.836,31.721 77.036,20.399 55.077,20.399 33.119,20.4 15.319,31.722 15.319,45.688 z"
             id="path3095"
             style="fill:#999999;fill-opacity:1;stroke:#ffffff;stroke-width:0.77006507;stroke-linecap:round;stroke-linejoin:round;stroke-miterlimit:4;stroke-opacity:1;stroke-dasharray:none"
             inkscape:connector-curvature="0" />
        </g>
        <g
           transform="matrix(1.05077,0,0,1.05077,-51.183846,986.14634)"
           id="g3097"
           style="fill:#999999;fill-opacity:1;stroke:#ffffff;stroke-width:0.77006507;stroke-miterlimit:4;stroke-opacity:1;stroke-dasharray:none">
          <path
             d="m 34.129,43.602 c -16.417,0 -29.725,8.465 -29.725,18.906 0,6.364 4.948,11.99 12.525,15.414 -0.399,0.969 -0.894,1.816 -1.511,2.442 -3.528,3.569 -9.196,5.252 -9.196,5.252 0,0 13.963,0.513 20.178,-4.852 2.465,0.421 5.055,0.65 7.729,0.65 16.418,0 29.727,-8.465 29.727,-18.907 C 63.855,52.066 50.547,43.602 34.129,43.602 z"
             id="path3099"
             style="fill:#999999;fill-opacity:1;stroke:#ffffff;stroke-width:0.77006507;stroke-linecap:round;stroke-linejoin:round;stroke-miterlimit:4;stroke-opacity:1;stroke-dasharray:none"
             inkscape:connector-curvature="0" />
        </g>
      </g>
    </g>
  </g>
</svg>
